<svg width="20" height="22" viewBox="0 0 20 22" fill="none" xmlns="http://www.w3.org/2000/svg">
<path d="M11.6667 10.0833C11.6667 10.5875 11.2917 11 10.8333 11H3.33333C2.875 11 2.5 10.5875 2.5 10.0833C2.5 9.57917 2.875 9.16667 3.33333 9.16667H10.8333C11.2917 9.16667 11.6667 9.57917 11.6667 10.0833ZM2.5 6.41667C2.5 6.92083 2.875 7.33333 3.33333 7.33333H10.8333C11.2917 7.33333 11.6667 6.92083 11.6667 6.41667C11.6667 5.9125 11.2917 5.5 10.8333 5.5H3.33333C2.875 5.5 2.5 5.9125 2.5 6.41667ZM8.33333 13.75C8.33333 13.2458 7.95833 12.8333 7.5 12.8333H3.33333C2.875 12.8333 2.5 13.2458 2.5 13.75C2.5 14.2542 2.875 14.6667 3.33333 14.6667H7.5C7.95833 14.6667 8.33333 14.2542 8.33333 13.75ZM15.0083 11.7975L15.6 11.1467C15.6771 11.0617 15.7687 10.9943 15.8695 10.9483C15.9703 10.9023 16.0784 10.8786 16.1875 10.8786C16.2966 10.8786 16.4047 10.9023 16.5055 10.9483C16.6063 10.9943 16.6979 11.0617 16.775 11.1467L17.3667 11.7975C17.6917 12.155 17.6917 12.7325 17.3667 13.09L16.775 13.7408L15.0083 11.7975ZM14.4167 12.4483L10.1167 17.1783C10.0417 17.2608 10 17.3708 10 17.4992V18.7917C10 19.0483 10.1833 19.25 10.4167 19.25H11.5917C11.7 19.25 11.8083 19.2042 11.8833 19.1125L16.1833 14.3825L14.4167 12.4483Z" fill="#009AAD"/>
</svg>
