<svg width="13" height="13" viewBox="0 0 13 13" fill="none" xmlns="http://www.w3.org/2000/svg">
<g clip-path="url(#clip0_967_2009)">
<path d="M3.68745 0C3.80812 0 3.92385 0.0479374 4.00918 0.133266C4.09451 0.218595 4.14245 0.334327 4.14245 0.455V1.30585H9.0285V0.46085C9.0285 0.340176 9.07644 0.224445 9.16177 0.139116C9.2471 0.0537874 9.36283 0.00585 9.4835 0.00585C9.60417 0.00585 9.7199 0.0537874 9.80523 0.139116C9.89056 0.224445 9.9385 0.340176 9.9385 0.46085V1.30585H11.7C12.0447 1.30585 12.3752 1.44272 12.619 1.68638C12.8628 1.93004 12.9998 2.26053 13 2.6052V11.7007C12.9998 12.0453 12.8628 12.3758 12.619 12.6195C12.3752 12.8631 12.0447 13 11.7 13H1.3C0.955331 13 0.62477 12.8631 0.380991 12.6195C0.137212 12.3758 0.000172334 12.0453 0 11.7007L0 2.6052C0.000172334 2.26053 0.137212 1.93004 0.380991 1.68638C0.62477 1.44272 0.955331 1.30585 1.3 1.30585H3.23245V0.45435C3.23262 0.333789 3.28064 0.218225 3.36595 0.133037C3.45126 0.047848 3.56689 -1.23021e-07 3.68745 0ZM0.91 5.0323V11.7007C0.91 11.7519 0.920088 11.8026 0.939687 11.8499C0.959286 11.8972 0.988014 11.9402 1.02423 11.9764C1.06044 12.0126 1.10344 12.0414 1.15075 12.061C1.19807 12.0806 1.24878 12.0907 1.3 12.0907H11.7C11.7512 12.0907 11.8019 12.0806 11.8492 12.061C11.8966 12.0414 11.9396 12.0126 11.9758 11.9764C12.012 11.9402 12.0407 11.8972 12.0603 11.8499C12.0799 11.8026 12.09 11.7519 12.09 11.7007V5.0414L0.91 5.0323ZM4.33355 9.50235V10.5852H3.25V9.50235H4.33355ZM7.04145 9.50235V10.5852H5.95855V9.50235H7.04145ZM9.75 9.50235V10.5852H8.66645V9.50235H9.75ZM4.33355 6.9173V8.0002H3.25V6.9173H4.33355ZM7.04145 6.9173V8.0002H5.95855V6.9173H7.04145ZM9.75 6.9173V8.0002H8.66645V6.9173H9.75ZM3.23245 2.2152H1.3C1.24878 2.2152 1.19807 2.22529 1.15075 2.24489C1.10344 2.26449 1.06044 2.29321 1.02423 2.32943C0.988014 2.36564 0.959286 2.40864 0.939687 2.45595C0.920088 2.50327 0.91 2.55398 0.91 2.6052V4.12295L12.09 4.13205V2.6052C12.09 2.55398 12.0799 2.50327 12.0603 2.45595C12.0407 2.40864 12.012 2.36564 11.9758 2.32943C11.9396 2.29321 11.8966 2.26449 11.8492 2.24489C11.8019 2.22529 11.7512 2.2152 11.7 2.2152H9.9385V2.81905C9.9385 2.93972 9.89056 3.05545 9.80523 3.14078C9.7199 3.22611 9.60417 3.27405 9.4835 3.27405C9.36283 3.27405 9.2471 3.22611 9.16177 3.14078C9.07644 3.05545 9.0285 2.93972 9.0285 2.81905V2.2152H4.14245V2.8132C4.14245 2.93387 4.09451 3.0496 4.00918 3.13493C3.92385 3.22026 3.80812 3.2682 3.68745 3.2682C3.56678 3.2682 3.45105 3.22026 3.36572 3.13493C3.28039 3.0496 3.23245 2.93387 3.23245 2.8132V2.2152Z" fill="#009AAD"/>
</g>
<defs>
<clipPath id="clip0_967_2009">
<rect width="13" height="13" fill="white"/>
</clipPath>
</defs>
</svg>
