<svg width="20" height="20" viewBox="0 0 20 20" fill="none" xmlns="http://www.w3.org/2000/svg">
<path d="M10 19.1667C11.6576 19.1667 13.2473 18.5082 14.4194 17.3361C15.5915 16.164 16.25 14.5743 16.25 12.9167C16.25 12.195 16.0583 11.5025 15.8333 10.8583C14.4442 12.2308 13.3892 12.9167 12.6667 12.9167C15.9958 7.08333 14.1667 4.58333 9.16667 1.25C9.58334 5.41667 6.83667 7.31167 5.71834 8.36417C4.80611 9.22223 4.1727 10.3346 3.90024 11.5569C3.62778 12.7793 3.72883 14.0554 4.19029 15.2196C4.65175 16.3839 5.45234 17.3826 6.48826 18.0864C7.52417 18.7902 8.74763 19.1666 10 19.1667ZM10.5917 4.3625C13.2925 6.65417 13.3058 8.435 11.2192 12.0908C10.585 13.2017 11.3875 14.5833 12.6667 14.5833C13.24 14.5833 13.82 14.4167 14.4325 14.0875C14.2509 14.7733 13.9127 15.4076 13.4443 15.9405C12.9759 16.4733 12.3903 16.8902 11.7334 17.1582C11.0765 17.4262 10.3664 17.5381 9.65896 17.4851C8.95151 17.432 8.26603 17.2154 7.65651 16.8524C7.04698 16.4894 6.53004 15.9898 6.1464 15.3931C5.76277 14.7963 5.5229 14.1186 5.44568 13.4134C5.36847 12.7082 5.45602 11.9947 5.70145 11.329C5.94687 10.6634 6.34347 10.0638 6.86 9.5775C6.965 9.47917 7.4975 9.00667 7.52083 8.98583C7.87417 8.66917 8.165 8.38833 8.4525 8.08083C9.4775 6.9825 10.2142 5.76417 10.5908 4.3625H10.5917Z" fill="#009AAD"/>
</svg>
