<svg width="28" height="28" viewBox="0 0 28 28" fill="none" xmlns="http://www.w3.org/2000/svg">
<path d="M14 0.875C11.4041 0.875 8.86654 1.64477 6.70815 3.08696C4.54975 4.52916 2.86749 6.579 1.87409 8.97728C0.880687 11.3756 0.620768 14.0146 1.1272 16.5606C1.63363 19.1066 2.88367 21.4452 4.71923 23.2808C6.55479 25.1163 8.89345 26.3664 11.4394 26.8728C13.9854 27.3792 16.6244 27.1193 19.0227 26.1259C21.421 25.1325 23.4709 23.4503 24.913 21.2919C26.3552 19.1335 27.125 16.5959 27.125 14C27.121 10.5203 25.737 7.18416 23.2764 4.72361C20.8158 2.26305 17.4798 0.87897 14 0.875ZM21.4925 22.3681C21.4738 21.1384 20.9728 19.9653 20.0974 19.1015C19.222 18.2377 18.0423 17.7523 16.8125 17.75H11.1875C9.95768 17.7523 8.77798 18.2377 7.90259 19.1015C7.0272 19.9653 6.52619 21.1384 6.50751 22.3681C4.80741 20.8501 3.6085 18.8514 3.06954 16.6369C2.53057 14.4223 2.67697 12.0963 3.48935 9.96674C4.30173 7.83723 5.74177 6.00469 7.61879 4.71178C9.49581 3.41887 11.7213 2.72659 14.0005 2.72659C16.2797 2.72659 18.5051 3.41887 20.3822 4.71178C22.2592 6.00469 23.6992 7.83723 24.5116 9.96674C25.324 12.0963 25.4704 14.4223 24.9314 16.6369C24.3924 18.8514 23.1935 20.8501 21.4934 22.3681H21.4925Z" fill="#C2C2C2"/>
</svg>
