<svg width="70" height="11" viewBox="0 0 70 11" fill="none" xmlns="http://www.w3.org/2000/svg">
<path d="M10.4061 5.33838C10.526 5.24904 10.6149 5.1244 10.6604 4.98194C10.706 4.83948 10.7058 4.68635 10.6599 4.54401C10.614 4.40168 10.5247 4.27728 10.4045 4.18825C10.2844 4.09923 10.1394 4.05005 9.98989 4.04761L7.0862 3.93789C7.07192 3.93691 7.05824 3.93182 7.04679 3.92323C7.03534 3.91464 7.02662 3.90292 7.02167 3.88949L6.01829 1.17887C5.96788 1.04096 5.87631 0.921883 5.75599 0.83775C5.63567 0.753617 5.49241 0.708496 5.3456 0.708496C5.1988 0.708496 5.05553 0.753617 4.93521 0.83775C4.81489 0.921883 4.72333 1.04096 4.67291 1.17887L3.67276 3.89917C3.66781 3.9126 3.65909 3.92432 3.64764 3.93291C3.63619 3.9415 3.62251 3.94659 3.60823 3.94758L0.704546 4.05729C0.55504 4.05973 0.410047 4.10891 0.289898 4.19794C0.169748 4.28696 0.0804667 4.41136 0.0345723 4.55369C-0.0113221 4.69603 -0.011528 4.84916 0.0339834 4.99162C0.0794948 5.13408 0.168441 5.25872 0.288351 5.34806L2.56613 7.13901C2.57753 7.14798 2.58605 7.1601 2.59064 7.17386C2.59523 7.18763 2.59568 7.20244 2.59194 7.21645L1.80795 9.99484C1.76732 10.1363 1.77126 10.2869 1.81922 10.4261C1.86718 10.5652 1.95684 10.6862 2.076 10.7726C2.19517 10.859 2.33804 10.9066 2.4852 10.9089C2.63236 10.9112 2.77665 10.8681 2.89844 10.7854L5.30527 9.17197C5.31713 9.16379 5.3312 9.1594 5.3456 9.1594C5.36001 9.1594 5.37408 9.16379 5.38593 9.17197L7.79276 10.7854C7.91291 10.8709 8.05669 10.9168 8.20412 10.9168C8.35155 10.9168 8.49533 10.8709 8.61547 10.7854C8.73467 10.6999 8.82441 10.5794 8.87237 10.4408C8.92032 10.3021 8.92413 10.1519 8.88326 10.011L8.09281 7.22291C8.08862 7.20891 8.08885 7.19396 8.09347 7.1801C8.09809 7.16624 8.10687 7.15415 8.11862 7.14546L10.4061 5.33838Z" fill="url(#paint0_linear_967_2003)"/>
<path d="M40.0587 5.33838C40.1786 5.24904 40.2675 5.1244 40.313 4.98194C40.3585 4.83948 40.3583 4.68635 40.3124 4.54401C40.2666 4.40168 40.1773 4.27728 40.0571 4.18825C39.937 4.09923 39.792 4.05005 39.6425 4.04761L36.7388 3.93789C36.7245 3.93691 36.7108 3.93182 36.6994 3.92323C36.6879 3.91464 36.6792 3.90292 36.6743 3.88949L35.6709 1.17887C35.6205 1.04096 35.5289 0.921883 35.4086 0.83775C35.2883 0.753617 35.145 0.708496 34.9982 0.708496C34.8514 0.708496 34.7081 0.753617 34.5878 0.83775C34.4675 0.921883 34.3759 1.04096 34.3255 1.17887L33.3253 3.89917C33.3204 3.9126 33.3117 3.92432 33.3002 3.93291C33.2888 3.9415 33.2751 3.94659 33.2608 3.94758L30.3571 4.05729C30.2076 4.05973 30.0626 4.10891 29.9425 4.19794C29.8223 4.28696 29.7331 4.41136 29.6872 4.55369C29.6413 4.69603 29.6411 4.84916 29.6866 4.99162C29.7321 5.13408 29.821 5.25872 29.9409 5.34806L32.2187 7.13901C32.2301 7.14798 32.2386 7.1601 32.2432 7.17386C32.2478 7.18763 32.2483 7.20244 32.2445 7.21645L31.4605 9.99484C31.4199 10.1363 31.4238 10.2869 31.4718 10.4261C31.5198 10.5652 31.6094 10.6862 31.7286 10.7726C31.8478 10.859 31.9906 10.9066 32.1378 10.9089C32.2849 10.9112 32.4292 10.8681 32.551 10.7854L34.9579 9.17197C34.9697 9.16379 34.9838 9.1594 34.9982 9.1594C35.0126 9.1594 35.0267 9.16379 35.0385 9.17197L37.4454 10.7854C37.5655 10.8709 37.7093 10.9168 37.8567 10.9168C38.0041 10.9168 38.1479 10.8709 38.2681 10.7854C38.3873 10.6999 38.477 10.5794 38.525 10.4408C38.5729 10.3021 38.5767 10.1519 38.5358 10.011L37.7454 7.22291C37.7412 7.20891 37.7414 7.19396 37.7461 7.1801C37.7507 7.16624 37.7595 7.15415 37.7712 7.14546L40.0587 5.33838Z" fill="url(#paint1_linear_967_2003)"/>
<path d="M25.0024 5.33838C25.1168 5.24904 25.2017 5.1244 25.2452 4.98194C25.2886 4.83948 25.2884 4.68635 25.2446 4.54401C25.2008 4.40168 25.1156 4.27728 25.0009 4.18825C24.8862 4.09923 24.7478 4.05005 24.6051 4.04761L21.8334 3.93789C21.8197 3.93691 21.8067 3.93182 21.7958 3.92323C21.7848 3.91464 21.7765 3.90292 21.7718 3.88949L20.814 1.17887C20.7659 1.04096 20.6785 0.921883 20.5636 0.83775C20.4488 0.753617 20.312 0.708496 20.1719 0.708496C20.0318 0.708496 19.895 0.753617 19.7802 0.83775C19.6653 0.921883 19.5779 1.04096 19.5298 1.17887L18.5751 3.89917C18.5704 3.9126 18.562 3.92432 18.5511 3.93291C18.5402 3.9415 18.5271 3.94659 18.5135 3.94758L15.7418 4.05729C15.5991 4.05973 15.4607 4.10891 15.346 4.19794C15.2313 4.28696 15.1461 4.41136 15.1023 4.55369C15.0585 4.69603 15.0583 4.84916 15.1017 4.99162C15.1452 5.13408 15.2301 5.25872 15.3445 5.34806L17.5188 7.13901C17.5296 7.14798 17.5378 7.1601 17.5422 7.17386C17.5465 7.18763 17.547 7.20244 17.5434 7.21645L16.795 9.99484C16.7563 10.1363 16.76 10.2869 16.8058 10.4261C16.8516 10.5652 16.9372 10.6862 17.0509 10.7726C17.1647 10.859 17.301 10.9066 17.4415 10.9089C17.582 10.9112 17.7197 10.8681 17.836 10.7854L20.1334 9.17197C20.1447 9.16379 20.1581 9.1594 20.1719 9.1594C20.1856 9.1594 20.1991 9.16379 20.2104 9.17197L22.5078 10.7854C22.6225 10.8709 22.7597 10.9168 22.9005 10.9168C23.0412 10.9168 23.1784 10.8709 23.2931 10.7854C23.4069 10.6999 23.4926 10.5794 23.5384 10.4408C23.5841 10.3021 23.5878 10.1519 23.5487 10.011L22.7942 7.22291C22.7902 7.20891 22.7905 7.19396 22.7949 7.1801C22.7993 7.16624 22.8077 7.15415 22.8189 7.14546L25.0024 5.33838Z" fill="url(#paint2_linear_967_2003)"/>
<path d="M54.6554 5.33838C54.7699 5.24904 54.8548 5.1244 54.8982 4.98194C54.9417 4.83948 54.9415 4.68635 54.8977 4.54401C54.8539 4.40168 54.7686 4.27728 54.654 4.18825C54.5393 4.09923 54.4009 4.05005 54.2582 4.04761L51.4865 3.93789C51.4728 3.93691 51.4598 3.93182 51.4488 3.92323C51.4379 3.91464 51.4296 3.90292 51.4249 3.88949L50.4671 1.17887C50.419 1.04096 50.3316 0.921883 50.2167 0.83775C50.1019 0.753617 49.9651 0.708496 49.825 0.708496C49.6848 0.708496 49.5481 0.753617 49.4332 0.83775C49.3184 0.921883 49.231 1.04096 49.1829 1.17887L48.2282 3.89917C48.2234 3.9126 48.2151 3.92432 48.2042 3.93291C48.1933 3.9415 48.1802 3.94659 48.1666 3.94758L45.3949 4.05729C45.2522 4.05973 45.1138 4.10891 44.9991 4.19794C44.8844 4.28696 44.7992 4.41136 44.7554 4.55369C44.7115 4.69603 44.7113 4.84916 44.7548 4.99162C44.7982 5.13408 44.8831 5.25872 44.9976 5.34806L47.1718 7.13901C47.1827 7.14798 47.1909 7.1601 47.1952 7.17386C47.1996 7.18763 47.2 7.20244 47.1965 7.21645L46.4481 9.99484C46.4093 10.1363 46.4131 10.2869 46.4589 10.4261C46.5047 10.5652 46.5902 10.6862 46.704 10.7726C46.8177 10.859 46.9541 10.9066 47.0946 10.9089C47.2351 10.9112 47.3728 10.8681 47.489 10.7854L49.7865 9.17197C49.7978 9.16379 49.8112 9.1594 49.825 9.1594C49.8387 9.1594 49.8522 9.16379 49.8635 9.17197L52.1609 10.7854C52.2756 10.8709 52.4128 10.9168 52.5536 10.9168C52.6943 10.9168 52.8315 10.8709 52.9462 10.7854C53.06 10.6999 53.1457 10.5794 53.1914 10.4408C53.2372 10.3021 53.2408 10.1519 53.2018 10.011L52.4473 7.22291C52.4433 7.20891 52.4435 7.19396 52.4479 7.1801C52.4523 7.16624 52.4607 7.15415 52.4719 7.14546L54.6554 5.33838Z" fill="url(#paint3_linear_967_2003)"/>
<path d="M69.7117 5.33838C69.8317 5.24904 69.9206 5.1244 69.9661 4.98194C70.0116 4.83948 70.0114 4.68635 69.9655 4.54401C69.9196 4.40168 69.8303 4.27728 69.7102 4.18825C69.59 4.09923 69.4451 4.05005 69.2955 4.04761L66.3919 3.93789C66.3776 3.93691 66.3639 3.93182 66.3525 3.92323C66.341 3.91464 66.3323 3.90292 66.3273 3.88949L65.324 1.17887C65.2735 1.04096 65.182 0.921883 65.0617 0.83775C64.9413 0.753617 64.7981 0.708496 64.6513 0.708496C64.5045 0.708496 64.3612 0.753617 64.2409 0.83775C64.1206 0.921883 64.029 1.04096 63.9786 1.17887L62.9784 3.89917C62.9735 3.9126 62.9648 3.92432 62.9533 3.93291C62.9419 3.9415 62.9282 3.94659 62.9139 3.94758L60.0102 4.05729C59.8607 4.05973 59.7157 4.10891 59.5956 4.19794C59.4754 4.28696 59.3861 4.41136 59.3402 4.55369C59.2943 4.69603 59.2941 4.84916 59.3396 4.99162C59.3852 5.13408 59.4741 5.25872 59.594 5.34806L61.8718 7.13901C61.8832 7.14798 61.8917 7.1601 61.8963 7.17386C61.9009 7.18763 61.9013 7.20244 61.8976 7.21645L61.1136 9.99484C61.073 10.1363 61.0769 10.2869 61.1249 10.4261C61.1728 10.5652 61.2625 10.6862 61.3817 10.7726C61.5008 10.859 61.6437 10.9066 61.7909 10.9089C61.938 10.9112 62.0823 10.8681 62.2041 10.7854L64.6109 9.17197C64.6228 9.16379 64.6369 9.1594 64.6513 9.1594C64.6657 9.1594 64.6797 9.16379 64.6916 9.17197L67.0984 10.7854C67.2186 10.8709 67.3624 10.9168 67.5098 10.9168C67.6572 10.9168 67.801 10.8709 67.9211 10.7854C68.0403 10.6999 68.1301 10.5794 68.178 10.4408C68.226 10.3021 68.2298 10.1519 68.1889 10.011L67.3985 7.22291C67.3943 7.20891 67.3945 7.19396 67.3991 7.1801C67.4038 7.16624 67.4125 7.15415 67.4243 7.14546L69.7117 5.33838Z" fill="black" fill-opacity="0.2"/>
<defs>
<linearGradient id="paint0_linear_967_2003" x1="-2.35277" y1="1.98454" x2="10.6465" y2="10.986" gradientUnits="userSpaceOnUse">
<stop offset="0.261147" stop-color="#FFC700"/>
<stop offset="1" stop-color="#FF9900"/>
</linearGradient>
<linearGradient id="paint1_linear_967_2003" x1="27.2998" y1="1.98454" x2="40.2991" y2="10.986" gradientUnits="userSpaceOnUse">
<stop offset="0.261147" stop-color="#FFC700"/>
<stop offset="1" stop-color="#FF9900"/>
</linearGradient>
<linearGradient id="paint2_linear_967_2003" x1="12.8234" y1="1.98454" x2="25.5997" y2="10.4295" gradientUnits="userSpaceOnUse">
<stop offset="0.261147" stop-color="#FFC700"/>
<stop offset="1" stop-color="#FF9900"/>
</linearGradient>
<linearGradient id="paint3_linear_967_2003" x1="42.4765" y1="1.98454" x2="55.2528" y2="10.4295" gradientUnits="userSpaceOnUse">
<stop offset="0.261147" stop-color="#FFC700"/>
<stop offset="1" stop-color="#FF9900"/>
</linearGradient>
</defs>
</svg>
