<svg width="18" height="18" viewBox="0 0 18 18" fill="none" xmlns="http://www.w3.org/2000/svg">
<path d="M3.38925 15.006L15.75 15V12.375C15.3522 12.375 14.9706 12.217 14.6893 11.9357C14.408 11.6544 14.25 11.2728 14.25 10.875C14.25 10.4772 14.408 10.0956 14.6893 9.81434C14.9706 9.53304 15.3522 9.375 15.75 9.375V6.75H3.2085" stroke="#009AAD" stroke-width="1.5" stroke-linecap="round" stroke-linejoin="round"/>
<path d="M15.75 6.7501L8.71125 3.0061C6.82725 3.0961 5.14275 4.0711 3.966 5.57485C2.89875 6.93985 2.25 8.7406 2.25 10.7154C2.25 12.3031 2.67 13.7791 3.38925 15.0061" stroke="#009AAD" stroke-width="1.5" stroke-linecap="round" stroke-linejoin="round"/>
<path d="M11.25 9.75V9.75833" stroke="#009AAD" stroke-width="1.5" stroke-linecap="round" stroke-linejoin="round"/>
<path d="M6 9.75V9.75833" stroke="#009AAD" stroke-width="1.5" stroke-linecap="round" stroke-linejoin="round"/>
<path d="M8.25 12V12.0083" stroke="#009AAD" stroke-width="1.5" stroke-linecap="round" stroke-linejoin="round"/>
</svg>
